<svg width="12" height="16" viewBox="0 0 12 16" fill="none" xmlns="http://www.w3.org/2000/svg">
<g clip-path="url(#clip0_1490_181)">
<path d="M1.54529 4.52H10.4529C10.7536 4.52181 10.9982 4.76819 10.9982 5.06891V10.9258C10.9982 11.2265 10.7536 11.4729 10.4529 11.4747H1.54529C1.24457 11.4747 1 11.2283 1 10.9276V5.06891C1 4.76819 1.24457 4.52181 1.54529 4.52Z" fill="#C8102E"/>
<path d="M6.00003 6.60696L5.57068 7.92942L6.45293 8.21565L6.00003 6.60696Z" fill="#FFFF00"/>
<path d="M6.00002 6.60696L6.42937 7.92942L5.54712 8.21565L6.00002 6.60696Z" fill="#FFFF00"/>
<path d="M7.32246 7.56891H5.93115V8.49645L7.32246 7.56891Z" fill="#FFFF00"/>
<path d="M7.32251 7.56891L6.19751 8.38594L5.65222 7.63594L7.32251 7.56891Z" fill="#FFFF00"/>
<path d="M6.81709 9.12326L6.38774 7.8008L5.50549 8.08703L6.81709 9.12326Z" fill="#FFFF00"/>
<path d="M6.81702 9.12326L5.69202 8.30623L6.23731 7.55623L6.81702 9.12326Z" fill="#FFFF00"/>
<path d="M4.67749 7.56891H6.06879V8.49645L4.67749 7.56891Z" fill="#FFFF00"/>
<path d="M4.67749 7.56891L5.80249 8.38594L6.34778 7.63594L4.67749 7.56891Z" fill="#FFFF00"/>
<path d="M5.18298 9.12326L5.61233 7.8008L6.49458 8.08703L5.18298 9.12326Z" fill="#FFFF00"/>
<path d="M5.18298 9.12326L6.30798 8.30623L5.76269 7.55623L5.18298 9.12326Z" fill="#FFFF00"/>
</g>
<defs>
<clipPath id="clip0_1490_181">
<rect width="10" height="6.95652" fill="white" transform="translate(1 4.52)"/>
</clipPath>
</defs>
</svg>
