<svg width="12" height="16" viewBox="0 0 12 16" fill="none" xmlns="http://www.w3.org/2000/svg">
<g clip-path="url(#clip0_1490_705)">
<path d="M5.30072 8.71385V11.5729H6.69203V8.71385H11V7.28528H6.69203V4.43H5.30072V7.28528H1V8.71385H5.30072Z" fill="#C8102E"/>
<path d="M7.15576 6.74213V4.43H10.4583C10.6866 4.43372 10.8822 4.58067 10.9619 4.78714L7.15576 6.74213Z" fill="#012169"/>
<path d="M7.15576 9.26073V11.5729H10.48C10.6992 11.5598 10.884 11.4147 10.9619 11.2157L7.15576 9.26073Z" fill="#012169"/>
<path d="M4.837 9.26073V11.5729H1.51997C1.30077 11.5598 1.11417 11.4147 1.03809 11.212L4.837 9.26073Z" fill="#012169"/>
<path d="M4.837 6.74213V4.43H1.54171C1.31345 4.43372 1.11598 4.58253 1.03809 4.79086L4.837 6.74213Z" fill="#012169"/>
<path d="M1 6.81095H2.38587L1 6.09853V6.81095Z" fill="#012169"/>
<path d="M11 6.81096H9.60693L11 6.09481V6.81096Z" fill="#012169"/>
<path d="M11 9.1919H9.60693L11 9.90805V9.1919Z" fill="#012169"/>
<path d="M1 9.1919H2.38587L1 9.90433V9.1919Z" fill="#012169"/>
<path d="M11 5.03454L7.54895 6.81095H8.32069L11 5.43446V5.03454Z" fill="#C8102E"/>
<path d="M4.44384 9.1919H3.6721L1 10.5647V10.9646L4.45109 9.1919H4.44384Z" fill="#C8102E"/>
<path d="M2.9058 6.81281H3.67754L1 5.43633V5.83439L2.9058 6.81281Z" fill="#C8102E"/>
<path d="M9.08509 9.19005H8.31335L10.9999 10.5721V10.1741L9.08509 9.19005Z" fill="#C8102E"/>
</g>
<defs>
<clipPath id="clip0_1490_705">
<rect width="10" height="7.14286" fill="white" transform="translate(1 4.43)"/>
</clipPath>
</defs>
</svg>
